<svg width="349" height="349" viewBox="0 0 349 349" fill="none" xmlns="http://www.w3.org/2000/svg">
<rect width="349" height="349" rx="174.5" fill="white"/>
<path fill-rule="evenodd" clip-rule="evenodd" d="M174.5 349C270.874 349 349 270.874 349 174.5C349 78.1263 270.874 0 174.5 0C78.1263 0 0 78.1263 0 174.5C0 270.874 78.1263 349 174.5 349ZM174.5 282.779C234.301 282.779 282.779 234.301 282.779 174.5C282.779 114.699 234.301 66.2205 174.5 66.2205C114.699 66.2205 66.2205 114.699 66.2205 174.5C66.2205 234.301 114.699 282.779 174.5 282.779Z" fill="#222222"/>
<path fill-rule="evenodd" clip-rule="evenodd" d="M216.559 46.5333H134.231V143.179H216.559V46.5333ZM216.559 205.821H134.231V306.046H216.559V205.821Z" fill="#222222"/>
</svg>
